<mxfile host="app.diagrams.net" modified="2023-06-20T12:00:18.372Z" agent="Mozilla/5.0 (X11; Ubuntu; Linux x86_64; rv:109.0) Gecko/20100101 Firefox/113.0" etag="X18A_sepA56NmGcTRirB" version="21.5.0" type="device">
  <diagram name="Page-1" id="CpT_m-j7Am7sjx0DqRG0">
    <mxGraphModel dx="1939" dy="1300" grid="1" gridSize="10" guides="1" tooltips="1" connect="1" arrows="1" fold="1" page="1" pageScale="1" pageWidth="850" pageHeight="1100" math="0" shadow="0">
      <root>
        <mxCell id="0" />
        <mxCell id="1" parent="0" />
        <mxCell id="NEY-SCTF0jtiZKWW0wOI-46" value="AutowareSimulation (Scene)" style="rounded=1;whiteSpace=wrap;html=1;labelPosition=center;verticalLabelPosition=top;align=center;verticalAlign=bottom;fontStyle=1;fontSize=16;glass=0;arcSize=5;fillColor=none;fontColor=#000000;strokeColor=#33FF33;gradientColor=none;strokeWidth=4;" vertex="1" parent="1">
          <mxGeometry x="-50" y="210" width="820" height="560" as="geometry" />
        </mxCell>
        <mxCell id="NEY-SCTF0jtiZKWW0wOI-37" value="&lt;div style=&quot;font-size: 16px;&quot;&gt;Environment&lt;/div&gt;" style="rounded=1;whiteSpace=wrap;html=1;labelPosition=center;verticalLabelPosition=top;align=center;verticalAlign=bottom;labelBackgroundColor=none;labelBorderColor=none;horizontal=1;fontStyle=1;fontSize=16;glass=0;arcSize=5;strokeWidth=3;strokeColor=#0000FF;" vertex="1" parent="1">
          <mxGeometry x="260" y="280" width="470" height="450" as="geometry" />
        </mxCell>
        <mxCell id="NEY-SCTF0jtiZKWW0wOI-9" value="Optional StopLine reference" style="edgeStyle=orthogonalEdgeStyle;rounded=0;orthogonalLoop=1;jettySize=auto;html=1;" edge="1" parent="1" source="NEY-SCTF0jtiZKWW0wOI-2" target="NEY-SCTF0jtiZKWW0wOI-3">
          <mxGeometry relative="1" as="geometry" />
        </mxCell>
        <mxCell id="NEY-SCTF0jtiZKWW0wOI-2" value="StopLines" style="rounded=1;whiteSpace=wrap;html=1;" vertex="1" parent="1">
          <mxGeometry x="570" y="430" width="120" height="60" as="geometry" />
        </mxCell>
        <mxCell id="NEY-SCTF0jtiZKWW0wOI-10" value="Spawnable Lanes" style="edgeStyle=orthogonalEdgeStyle;rounded=0;orthogonalLoop=1;jettySize=auto;html=1;" edge="1" parent="1" source="NEY-SCTF0jtiZKWW0wOI-3" target="NEY-SCTF0jtiZKWW0wOI-8">
          <mxGeometry relative="1" as="geometry" />
        </mxCell>
        <mxCell id="NEY-SCTF0jtiZKWW0wOI-3" value="&lt;div&gt;TrafficLanes&lt;/div&gt;" style="rounded=1;whiteSpace=wrap;html=1;" vertex="1" parent="1">
          <mxGeometry x="570" y="320" width="120" height="60" as="geometry" />
        </mxCell>
        <mxCell id="NEY-SCTF0jtiZKWW0wOI-4" value="&lt;div&gt;TrafficIntersections&lt;/div&gt;" style="rounded=1;whiteSpace=wrap;html=1;" vertex="1" parent="1">
          <mxGeometry x="570" y="640" width="120" height="60" as="geometry" />
        </mxCell>
        <mxCell id="NEY-SCTF0jtiZKWW0wOI-6" value="" style="edgeStyle=orthogonalEdgeStyle;rounded=0;orthogonalLoop=1;jettySize=auto;html=1;" edge="1" parent="1" source="NEY-SCTF0jtiZKWW0wOI-5" target="NEY-SCTF0jtiZKWW0wOI-4">
          <mxGeometry relative="1" as="geometry" />
        </mxCell>
        <mxCell id="NEY-SCTF0jtiZKWW0wOI-30" value="&lt;div&gt;TrafficLight reference&lt;/div&gt;" style="edgeStyle=orthogonalEdgeStyle;rounded=0;orthogonalLoop=1;jettySize=auto;html=1;" edge="1" parent="1" source="NEY-SCTF0jtiZKWW0wOI-5" target="NEY-SCTF0jtiZKWW0wOI-2">
          <mxGeometry relative="1" as="geometry" />
        </mxCell>
        <mxCell id="NEY-SCTF0jtiZKWW0wOI-5" value="TrafficLights" style="rounded=1;whiteSpace=wrap;html=1;" vertex="1" parent="1">
          <mxGeometry x="570" y="540" width="120" height="60" as="geometry" />
        </mxCell>
        <mxCell id="NEY-SCTF0jtiZKWW0wOI-8" value="&lt;div&gt;TrafficSimulator&lt;/div&gt;" style="rounded=1;whiteSpace=wrap;html=1;" vertex="1" parent="1">
          <mxGeometry x="310" y="320" width="120" height="60" as="geometry" />
        </mxCell>
        <mxCell id="NEY-SCTF0jtiZKWW0wOI-27" value="Spawned Prefabs" style="edgeStyle=orthogonalEdgeStyle;rounded=0;orthogonalLoop=1;jettySize=auto;html=1;" edge="1" parent="1" source="NEY-SCTF0jtiZKWW0wOI-26" target="NEY-SCTF0jtiZKWW0wOI-8">
          <mxGeometry relative="1" as="geometry" />
        </mxCell>
        <mxCell id="NEY-SCTF0jtiZKWW0wOI-26" value="NPCVehicles" style="rounded=1;whiteSpace=wrap;html=1;" vertex="1" parent="1">
          <mxGeometry x="-190" y="210" width="120" height="60" as="geometry" />
        </mxCell>
        <mxCell id="NEY-SCTF0jtiZKWW0wOI-29" value="EgoVehicle reference" style="edgeStyle=orthogonalEdgeStyle;rounded=0;orthogonalLoop=1;jettySize=auto;html=1;" edge="1" parent="1" source="NEY-SCTF0jtiZKWW0wOI-28" target="NEY-SCTF0jtiZKWW0wOI-8">
          <mxGeometry relative="1" as="geometry" />
        </mxCell>
        <mxCell id="NEY-SCTF0jtiZKWW0wOI-28" value="EgoVehicle" style="rounded=1;whiteSpace=wrap;html=1;" vertex="1" parent="1">
          <mxGeometry x="30" y="320" width="120" height="60" as="geometry" />
        </mxCell>
        <mxCell id="NEY-SCTF0jtiZKWW0wOI-31" value="&lt;div&gt;NPCPedestrians&lt;/div&gt;" style="rounded=1;whiteSpace=wrap;html=1;" vertex="1" parent="1">
          <mxGeometry x="310" y="400" width="120" height="60" as="geometry" />
        </mxCell>
        <mxCell id="NEY-SCTF0jtiZKWW0wOI-33" value="Directional Light" style="rounded=0;whiteSpace=wrap;html=1;" vertex="1" parent="1">
          <mxGeometry x="310" y="560" width="120" height="60" as="geometry" />
        </mxCell>
        <mxCell id="NEY-SCTF0jtiZKWW0wOI-34" value="&lt;div&gt;Volume&lt;/div&gt;" style="rounded=0;whiteSpace=wrap;html=1;" vertex="1" parent="1">
          <mxGeometry x="310" y="640" width="120" height="60" as="geometry" />
        </mxCell>
        <mxCell id="NEY-SCTF0jtiZKWW0wOI-35" value="Visual Elements (SJK)" style="rounded=1;whiteSpace=wrap;html=1;" vertex="1" parent="1">
          <mxGeometry x="310" y="480" width="120" height="60" as="geometry" />
        </mxCell>
        <mxCell id="NEY-SCTF0jtiZKWW0wOI-42" value="&lt;div&gt;ClockPublisher&lt;/div&gt;" style="rounded=0;whiteSpace=wrap;html=1;" vertex="1" parent="1">
          <mxGeometry x="30" y="475" width="120" height="60" as="geometry" />
        </mxCell>
        <mxCell id="NEY-SCTF0jtiZKWW0wOI-43" value="MainCamera" style="rounded=0;whiteSpace=wrap;html=1;" vertex="1" parent="1">
          <mxGeometry x="30" y="400" width="120" height="60" as="geometry" />
        </mxCell>
        <mxCell id="NEY-SCTF0jtiZKWW0wOI-44" value="Canvas" style="rounded=1;whiteSpace=wrap;html=1;" vertex="1" parent="1">
          <mxGeometry x="30" y="640" width="120" height="60" as="geometry" />
        </mxCell>
        <mxCell id="NEY-SCTF0jtiZKWW0wOI-45" value="EventSystem" style="rounded=0;whiteSpace=wrap;html=1;" vertex="1" parent="1">
          <mxGeometry x="30" y="560" width="120" height="60" as="geometry" />
        </mxCell>
      </root>
    </mxGraphModel>
  </diagram>
</mxfile>
